<svg width="37" height="149" viewBox="0 0 37 149" fill="none" xmlns="http://www.w3.org/2000/svg">
<path d="M2.50716 95.2047C3.86164 95.2047 4.95966 94.1067 4.95966 92.7522C4.95966 91.3977 3.86164 90.2997 2.50716 90.2997C1.15268 90.2997 0.0546875 91.3977 0.0546875 92.7522C0.0546875 94.1067 1.15268 95.2047 2.50716 95.2047Z" fill="black"/>
<path d="M18.071 95.2047C19.4255 95.2047 20.5235 94.1067 20.5235 92.7522C20.5235 91.3977 19.4255 90.2997 18.071 90.2997C16.7166 90.2997 15.6186 91.3977 15.6186 92.7522C15.6186 94.1067 16.7166 95.2047 18.071 95.2047Z" fill="black"/>
<path d="M33.635 95.2047C34.9894 95.2047 36.0875 94.1067 36.0875 92.7522C36.0875 91.3977 34.9894 90.2997 33.635 90.2997C32.2805 90.2997 31.1825 91.3977 31.1825 92.7522C31.1825 94.1067 32.2805 95.2047 33.635 95.2047Z" fill="black"/>
<path d="M2.50716 76.8581C3.86164 76.8581 4.95966 75.7601 4.95966 74.4056C4.95966 73.0511 3.86164 71.9531 2.50716 71.9531C1.15268 71.9531 0.0546875 73.0511 0.0546875 74.4056C0.0546875 75.7601 1.15268 76.8581 2.50716 76.8581Z" fill="black"/>
<path d="M18.071 76.8581C19.4255 76.8581 20.5235 75.7601 20.5235 74.4056C20.5235 73.0511 19.4255 71.9531 18.071 71.9531C16.7166 71.9531 15.6186 73.0511 15.6186 74.4056C15.6186 75.7601 16.7166 76.8581 18.071 76.8581Z" fill="black"/>
<path d="M33.635 76.8581C34.9894 76.8581 36.0875 75.7601 36.0875 74.4056C36.0875 73.0511 34.9894 71.9531 33.635 71.9531C32.2805 71.9531 31.1825 73.0511 31.1825 74.4056C31.1825 75.7601 32.2805 76.8581 33.635 76.8581Z" fill="black"/>
<path d="M2.50716 60.8225C3.86164 60.8225 4.95966 59.7245 4.95966 58.37C4.95966 57.0155 3.86164 55.9175 2.50716 55.9175C1.15268 55.9175 0.0546875 57.0155 0.0546875 58.37C0.0546875 59.7245 1.15268 60.8225 2.50716 60.8225Z" fill="black"/>
<path d="M18.071 60.8225C19.4255 60.8225 20.5235 59.7245 20.5235 58.37C20.5235 57.0155 19.4255 55.9175 18.071 55.9175C16.7166 55.9175 15.6186 57.0155 15.6186 58.37C15.6186 59.7245 16.7166 60.8225 18.071 60.8225Z" fill="black"/>
<path d="M33.635 60.8225C34.9894 60.8225 36.0875 59.7245 36.0875 58.37C36.0875 57.0155 34.9894 55.9175 33.635 55.9175C32.2805 55.9175 31.1825 57.0155 31.1825 58.37C31.1825 59.7245 32.2805 60.8225 33.635 60.8225Z" fill="black"/>
<path d="M2.50716 148.417C3.86164 148.417 4.95966 147.319 4.95966 145.965C4.95966 144.61 3.86164 143.512 2.50716 143.512C1.15268 143.512 0.0546875 144.61 0.0546875 145.965C0.0546875 147.319 1.15268 148.417 2.50716 148.417Z" fill="black"/>
<path d="M18.071 148.417C19.4255 148.417 20.5235 147.319 20.5235 145.965C20.5235 144.61 19.4255 143.512 18.071 143.512C16.7166 143.512 15.6186 144.61 15.6186 145.965C15.6186 147.319 16.7166 148.417 18.071 148.417Z" fill="black"/>
<path d="M33.635 148.417C34.9894 148.417 36.0875 147.319 36.0875 145.965C36.0875 144.61 34.9894 143.512 33.635 143.512C32.2805 143.512 31.1825 144.61 31.1825 145.965C31.1825 147.319 32.2805 148.417 33.635 148.417Z" fill="black"/>
<path d="M2.50716 130.071C3.86164 130.071 4.95966 128.972 4.95966 127.618C4.95966 126.264 3.86164 125.166 2.50716 125.166C1.15268 125.166 0.0546875 126.264 0.0546875 127.618C0.0546875 128.972 1.15268 130.071 2.50716 130.071Z" fill="black"/>
<path d="M18.071 130.071C19.4255 130.071 20.5235 128.972 20.5235 127.618C20.5235 126.264 19.4255 125.166 18.071 125.166C16.7166 125.166 15.6186 126.264 15.6186 127.618C15.6186 128.972 16.7166 130.071 18.071 130.071Z" fill="black"/>
<path d="M33.635 130.071C34.9894 130.071 36.0875 128.972 36.0875 127.618C36.0875 126.264 34.9894 125.166 33.635 125.166C32.2805 125.166 31.1825 126.264 31.1825 127.618C31.1825 128.972 32.2805 130.071 33.635 130.071Z" fill="black"/>
<path d="M2.50716 114.035C3.86164 114.035 4.95966 112.937 4.95966 111.582C4.95966 110.228 3.86164 109.13 2.50716 109.13C1.15268 109.13 0.0546875 110.228 0.0546875 111.582C0.0546875 112.937 1.15268 114.035 2.50716 114.035Z" fill="black"/>
<path d="M18.071 114.035C19.4255 114.035 20.5235 112.937 20.5235 111.582C20.5235 110.228 19.4255 109.13 18.071 109.13C16.7166 109.13 15.6186 110.228 15.6186 111.582C15.6186 112.937 16.7166 114.035 18.071 114.035Z" fill="black"/>
<path d="M33.635 114.035C34.9894 114.035 36.0875 112.937 36.0875 111.582C36.0875 110.228 34.9894 109.13 33.635 109.13C32.2805 109.13 31.1825 110.228 31.1825 111.582C31.1825 112.937 32.2805 114.035 33.635 114.035Z" fill="black"/>
<path d="M2.50716 42.476C3.86164 42.476 4.95966 41.378 4.95966 40.0235C4.95966 38.6691 3.86164 37.571 2.50716 37.571C1.15268 37.571 0.0546875 38.6691 0.0546875 40.0235C0.0546875 41.378 1.15268 42.476 2.50716 42.476Z" fill="black"/>
<path d="M18.071 42.476C19.4255 42.476 20.5235 41.378 20.5235 40.0235C20.5235 38.6691 19.4255 37.571 18.071 37.571C16.7166 37.571 15.6186 38.6691 15.6186 40.0235C15.6186 41.378 16.7166 42.476 18.071 42.476Z" fill="black"/>
<path d="M33.635 42.476C34.9894 42.476 36.0875 41.378 36.0875 40.0235C36.0875 38.6691 34.9894 37.571 33.635 37.571C32.2805 37.571 31.1825 38.6691 31.1825 40.0235C31.1825 41.378 32.2805 42.476 33.635 42.476Z" fill="black"/>
<path d="M2.50716 24.1294C3.86164 24.1294 4.95966 23.0313 4.95966 21.6769C4.95966 20.3224 3.86164 19.2244 2.50716 19.2244C1.15268 19.2244 0.0546875 20.3224 0.0546875 21.6769C0.0546875 23.0313 1.15268 24.1294 2.50716 24.1294Z" fill="black"/>
<path d="M18.071 24.1294C19.4255 24.1294 20.5235 23.0313 20.5235 21.6769C20.5235 20.3224 19.4255 19.2244 18.071 19.2244C16.7166 19.2244 15.6186 20.3224 15.6186 21.6769C15.6186 23.0313 16.7166 24.1294 18.071 24.1294Z" fill="black"/>
<path d="M33.635 24.1294C34.9894 24.1294 36.0875 23.0313 36.0875 21.6769C36.0875 20.3224 34.9894 19.2244 33.635 19.2244C32.2805 19.2244 31.1825 20.3224 31.1825 21.6769C31.1825 23.0313 32.2805 24.1294 33.635 24.1294Z" fill="black"/>
<path d="M2.50716 5.78292C3.86164 5.78292 4.95966 4.6849 4.95966 3.33042C4.95966 1.97595 3.86164 0.87793 2.50716 0.87793C1.15268 0.87793 0.0546875 1.97595 0.0546875 3.33042C0.0546875 4.6849 1.15268 5.78292 2.50716 5.78292Z" fill="black"/>
<path d="M18.071 5.78292C19.4255 5.78292 20.5235 4.6849 20.5235 3.33042C20.5235 1.97595 19.4255 0.87793 18.071 0.87793C16.7166 0.87793 15.6186 1.97595 15.6186 3.33042C15.6186 4.6849 16.7166 5.78292 18.071 5.78292Z" fill="black"/>
<path d="M33.635 5.78292C34.9894 5.78292 36.0875 4.6849 36.0875 3.33042C36.0875 1.97595 34.9894 0.87793 33.635 0.87793C32.2805 0.87793 31.1825 1.97595 31.1825 3.33042C31.1825 4.6849 32.2805 5.78292 33.635 5.78292Z" fill="black"/>
</svg>
