<svg width="58" height="56" viewBox="0 0 58 56" fill="none" xmlns="http://www.w3.org/2000/svg">
<circle cx="28" cy="28" r="27.5" stroke="#E5E5E5"/>
<circle cx="47.5" cy="12.5" r="10.5" fill="#E33E54"/>
<path d="M46.731 14.8835V16H42.254V14.8835H43.838V10.5165C43.838 10.4212 43.8398 10.324 43.8435 10.225C43.8472 10.126 43.8527 10.0252 43.86 9.9225L42.815 10.7915C42.7417 10.8465 42.6702 10.8813 42.6005 10.896C42.5308 10.9107 42.4648 10.9125 42.4025 10.9015C42.3402 10.8868 42.2852 10.8648 42.2375 10.8355C42.1898 10.8025 42.1532 10.7695 42.1275 10.7365L41.649 10.093L44.102 8.014H45.3505V14.8835H46.731ZM53.5134 12.007C53.5134 12.7037 53.4382 13.3087 53.2879 13.822C53.1375 14.3353 52.9304 14.7607 52.6664 15.098C52.4024 15.4317 52.0889 15.681 51.7259 15.846C51.3665 16.0073 50.9779 16.088 50.5599 16.088C50.1419 16.088 49.7532 16.0073 49.3939 15.846C49.0345 15.681 48.7247 15.4317 48.4644 15.098C48.204 14.7607 47.9987 14.3353 47.8484 13.822C47.7017 13.3087 47.6284 12.7037 47.6284 12.007C47.6284 11.3103 47.7017 10.7072 47.8484 10.1975C47.9987 9.68417 48.204 9.26067 48.4644 8.927C48.7247 8.58967 49.0345 8.34033 49.3939 8.179C49.7532 8.014 50.1419 7.9315 50.5599 7.9315C50.9779 7.9315 51.3665 8.014 51.7259 8.179C52.0889 8.34033 52.4024 8.58967 52.6664 8.927C52.9304 9.26067 53.1375 9.68417 53.2879 10.1975C53.4382 10.7072 53.5134 11.3103 53.5134 12.007ZM51.9459 12.007C51.9459 11.4423 51.9055 10.9767 51.8249 10.61C51.7479 10.2433 51.6452 9.95367 51.5169 9.741C51.3885 9.52833 51.24 9.37983 51.0714 9.2955C50.9064 9.21117 50.7359 9.169 50.5599 9.169C50.3839 9.169 50.2134 9.21117 50.0484 9.2955C49.887 9.37983 49.7422 9.52833 49.6139 9.741C49.4892 9.95367 49.3884 10.2433 49.3114 10.61C49.2344 10.9767 49.1959 11.4423 49.1959 12.007C49.1959 12.5753 49.2344 13.0428 49.3114 13.4095C49.3884 13.7762 49.4892 14.0658 49.6139 14.2785C49.7422 14.4912 49.887 14.6397 50.0484 14.724C50.2134 14.8083 50.3839 14.8505 50.5599 14.8505C50.7359 14.8505 50.9064 14.8083 51.0714 14.724C51.24 14.6397 51.3885 14.4912 51.5169 14.2785C51.6452 14.0658 51.7479 13.7762 51.8249 13.4095C51.9055 13.0428 51.9459 12.5753 51.9459 12.007Z" fill="white"/>
<g clip-path="url(#clip0_4537_8)">
<path d="M39.6437 24.6749C39.3268 24.2773 38.8513 24.0492 38.3392 24.0492H33.7171L31.2108 18.3101C31.0554 17.9543 30.6409 17.7917 30.285 17.9472C29.9291 18.1026 29.7666 18.5171 29.9221 18.8729L32.1826 24.0492H23.8174L26.0779 18.8729C26.2333 18.5171 26.0709 18.1026 25.715 17.9472C25.3592 17.7917 24.9446 17.9542 24.7893 18.3101L22.2829 24.0492H17.6608C17.1487 24.0492 16.6732 24.2773 16.3563 24.6749C16.0452 25.0653 15.9304 25.5671 16.0413 26.0519L18.5096 36.8332C18.682 37.586 19.348 38.1117 20.1291 38.1117H35.8709C36.6521 38.1117 37.318 37.586 37.4904 36.8332L39.9587 26.0519C40.0696 25.5671 39.9548 25.0652 39.6437 24.6749ZM35.8709 36.7054H20.1291C20.0097 36.7054 19.9052 36.6271 19.8805 36.5192L17.4122 25.7381C17.3928 25.6535 17.4253 25.5898 17.456 25.5513C17.4845 25.5155 17.5491 25.4555 17.6608 25.4555H21.6688L21.4846 25.8772C21.3292 26.2331 21.4917 26.6475 21.8476 26.803C21.9392 26.843 22.0346 26.8619 22.1286 26.8619C22.3996 26.8619 22.6579 26.7043 22.7733 26.4401L23.2033 25.4556H32.7968L33.2268 26.4401C33.3422 26.7044 33.6005 26.8619 33.8715 26.8619C33.9655 26.8619 34.0609 26.843 34.1525 26.803C34.5084 26.6476 34.6709 26.2331 34.5155 25.8772L34.3313 25.4555H38.3393C38.451 25.4555 38.5156 25.5155 38.5441 25.5513C38.5748 25.5899 38.6073 25.6535 38.5879 25.738L36.1196 36.5193C36.0949 36.6271 35.9903 36.7054 35.8709 36.7054Z" fill="black"/>
<path d="M23.7812 28.5024C23.3929 28.5024 23.0781 28.8173 23.0781 29.2056V34.3618C23.0781 34.7501 23.3929 35.0649 23.7812 35.0649C24.1696 35.0649 24.4844 34.7501 24.4844 34.3618V29.2056C24.4844 28.8173 24.1696 28.5024 23.7812 28.5024Z" fill="black"/>
<path d="M28 28.5024C27.6117 28.5024 27.2969 28.8173 27.2969 29.2056V34.3618C27.2969 34.7501 27.6117 35.0649 28 35.0649C28.3883 35.0649 28.7031 34.7501 28.7031 34.3618V29.2056C28.7031 28.8173 28.3883 28.5024 28 28.5024Z" fill="black"/>
<path d="M32.2188 28.5024C31.8304 28.5024 31.5156 28.8173 31.5156 29.2056V34.3618C31.5156 34.7501 31.8304 35.0649 32.2188 35.0649C32.6071 35.0649 32.9219 34.7501 32.9219 34.3618V29.2056C32.9218 28.8173 32.6071 28.5024 32.2188 28.5024Z" fill="black"/>
</g>
<defs>
<clipPath id="clip0_4537_8">
<rect width="24" height="24" fill="white" transform="translate(16 16)"/>
</clipPath>
</defs>
</svg>
