<svg width="1157" height="407" viewBox="0 0 1157 407" fill="none" xmlns="http://www.w3.org/2000/svg">
<path fill-rule="evenodd" clip-rule="evenodd" d="M763.78 401.147C868.535 430.606 919.507 317.557 1009.26 326.158C1058.39 330.866 1156.33 354.728 1156.11 180.903C1155.56 68.6821 1052.12 40.5802 945.459 98.1319C914.072 110.407 889.291 106.602 862.386 94.4064C835.481 82.2103 800.878 27.7639 735.661 16.5628C539.402 -17.1447 371.477 290.826 763.78 401.147Z" fill="#EA6628"/>
<path fill-rule="evenodd" clip-rule="evenodd" d="M178.116 402.317C256.585 424.408 294.767 339.634 362.001 346.084C398.805 349.614 472.164 367.508 472 237.159C471.59 153.005 394.108 131.932 314.208 175.09C290.696 184.294 272.133 181.442 251.979 172.296C231.825 163.15 205.905 122.321 157.053 113.922C10.0393 88.6449 -115.749 319.588 178.116 402.317Z" fill="#EA6628"/>
<path d="M66.1201 355.542C67.291 355.542 68.2402 354.592 68.2402 353.422C68.2402 352.251 67.291 351.302 66.1201 351.302C64.9492 351.302 64.0001 352.251 64.0001 353.422C64.0001 354.592 64.9492 355.542 66.1201 355.542Z" fill="black"/>
<path d="M79.5745 355.542C80.7454 355.542 81.6946 354.592 81.6946 353.422C81.6946 352.251 80.7454 351.302 79.5745 351.302C78.4036 351.302 77.4544 352.251 77.4544 353.422C77.4544 354.592 78.4036 355.542 79.5745 355.542Z" fill="black"/>
<path d="M93.0288 355.542C94.1997 355.542 95.1489 354.592 95.1489 353.422C95.1489 352.251 94.1997 351.302 93.0288 351.302C91.8579 351.302 90.9088 352.251 90.9088 353.422C90.9088 354.592 91.8579 355.542 93.0288 355.542Z" fill="black"/>
<path d="M66.1201 339.682C67.291 339.682 68.2402 338.733 68.2402 337.562C68.2402 336.391 67.291 335.442 66.1201 335.442C64.9492 335.442 64.0001 336.391 64.0001 337.562C64.0001 338.733 64.9492 339.682 66.1201 339.682Z" fill="black"/>
<path d="M79.5745 339.682C80.7454 339.682 81.6946 338.733 81.6946 337.562C81.6946 336.391 80.7454 335.442 79.5745 335.442C78.4036 335.442 77.4544 336.391 77.4544 337.562C77.4544 338.733 78.4036 339.682 79.5745 339.682Z" fill="black"/>
<path d="M93.0288 339.682C94.1997 339.682 95.1489 338.733 95.1489 337.562C95.1489 336.391 94.1997 335.442 93.0288 335.442C91.8579 335.442 90.9088 336.391 90.9088 337.562C90.9088 338.733 91.8579 339.682 93.0288 339.682Z" fill="black"/>
<path d="M66.1201 325.82C67.291 325.82 68.2402 324.871 68.2402 323.7C68.2402 322.529 67.291 321.58 66.1201 321.58C64.9492 321.58 64.0001 322.529 64.0001 323.7C64.0001 324.871 64.9492 325.82 66.1201 325.82Z" fill="black"/>
<path d="M79.5745 325.82C80.7454 325.82 81.6946 324.871 81.6946 323.7C81.6946 322.529 80.7454 321.58 79.5745 321.58C78.4036 321.58 77.4544 322.529 77.4544 323.7C77.4544 324.871 78.4036 325.82 79.5745 325.82Z" fill="black"/>
<path d="M93.0288 325.82C94.1997 325.82 95.1489 324.871 95.1489 323.7C95.1489 322.529 94.1997 321.58 93.0288 321.58C91.8579 321.58 90.9088 322.529 90.9088 323.7C90.9088 324.871 91.8579 325.82 93.0288 325.82Z" fill="black"/>
<path d="M66.1201 401.542C67.2909 401.542 68.2401 400.592 68.2401 399.422C68.2401 398.251 67.2909 397.302 66.1201 397.302C64.9492 397.302 64 398.251 64 399.422C64 400.592 64.9492 401.542 66.1201 401.542Z" fill="black"/>
<path d="M79.5744 401.542C80.7453 401.542 81.6945 400.592 81.6945 399.422C81.6945 398.251 80.7453 397.302 79.5744 397.302C78.4035 397.302 77.4543 398.251 77.4543 399.422C77.4543 400.592 78.4035 401.542 79.5744 401.542Z" fill="black"/>
<path d="M93.0288 401.542C94.1996 401.542 95.1488 400.592 95.1488 399.422C95.1488 398.251 94.1996 397.302 93.0288 397.302C91.8579 397.302 90.9087 398.251 90.9087 399.422C90.9087 400.592 91.8579 401.542 93.0288 401.542Z" fill="black"/>
<path d="M66.1201 385.682C67.2909 385.682 68.2401 384.733 68.2401 383.562C68.2401 382.391 67.2909 381.442 66.1201 381.442C64.9492 381.442 64 382.391 64 383.562C64 384.733 64.9492 385.682 66.1201 385.682Z" fill="black"/>
<path d="M79.5744 385.682C80.7453 385.682 81.6945 384.733 81.6945 383.562C81.6945 382.391 80.7453 381.442 79.5744 381.442C78.4035 381.442 77.4543 382.391 77.4543 383.562C77.4543 384.733 78.4035 385.682 79.5744 385.682Z" fill="black"/>
<path d="M93.0288 385.682C94.1996 385.682 95.1488 384.733 95.1488 383.562C95.1488 382.391 94.1996 381.442 93.0288 381.442C91.8579 381.442 90.9087 382.391 90.9087 383.562C90.9087 384.733 91.8579 385.682 93.0288 385.682Z" fill="black"/>
<path d="M66.1201 371.82C67.2909 371.82 68.2401 370.871 68.2401 369.7C68.2401 368.529 67.2909 367.58 66.1201 367.58C64.9492 367.58 64 368.529 64 369.7C64 370.871 64.9492 371.82 66.1201 371.82Z" fill="black"/>
<path d="M79.5744 371.82C80.7453 371.82 81.6945 370.871 81.6945 369.7C81.6945 368.529 80.7453 367.58 79.5744 367.58C78.4035 367.58 77.4543 368.529 77.4543 369.7C77.4543 370.871 78.4035 371.82 79.5744 371.82Z" fill="black"/>
<path d="M93.0288 371.82C94.1996 371.82 95.1488 370.871 95.1488 369.7C95.1488 368.529 94.1996 367.58 93.0288 367.58C91.8579 367.58 90.9087 368.529 90.9087 369.7C90.9087 370.871 91.8579 371.82 93.0288 371.82Z" fill="black"/>
<path d="M66.1201 309.96C67.291 309.96 68.2402 309.011 68.2402 307.84C68.2402 306.669 67.291 305.72 66.1201 305.72C64.9492 305.72 64.0001 306.669 64.0001 307.84C64.0001 309.011 64.9492 309.96 66.1201 309.96Z" fill="black"/>
<path d="M79.5745 309.96C80.7454 309.96 81.6946 309.011 81.6946 307.84C81.6946 306.669 80.7454 305.72 79.5745 305.72C78.4036 305.72 77.4544 306.669 77.4544 307.84C77.4544 309.011 78.4036 309.96 79.5745 309.96Z" fill="black"/>
<path d="M93.0288 309.96C94.1997 309.96 95.1489 309.011 95.1489 307.84C95.1489 306.669 94.1997 305.72 93.0288 305.72C91.8579 305.72 90.9088 306.669 90.9088 307.84C90.9088 309.011 91.8579 309.96 93.0288 309.96Z" fill="black"/>
<path d="M66.1201 294.1C67.291 294.1 68.2402 293.151 68.2402 291.98C68.2402 290.809 67.291 289.86 66.1201 289.86C64.9492 289.86 64.0001 290.809 64.0001 291.98C64.0001 293.151 64.9492 294.1 66.1201 294.1Z" fill="black"/>
<path d="M79.5745 294.1C80.7454 294.1 81.6946 293.151 81.6946 291.98C81.6946 290.809 80.7454 289.86 79.5745 289.86C78.4036 289.86 77.4544 290.809 77.4544 291.98C77.4544 293.151 78.4036 294.1 79.5745 294.1Z" fill="black"/>
<path d="M93.0288 294.1C94.1997 294.1 95.1489 293.151 95.1489 291.98C95.1489 290.809 94.1997 289.86 93.0288 289.86C91.8579 289.86 90.9088 290.809 90.9088 291.98C90.9088 293.151 91.8579 294.1 93.0288 294.1Z" fill="black"/>
<path d="M66.1201 278.24C67.291 278.24 68.2402 277.291 68.2402 276.12C68.2402 274.949 67.291 274 66.1201 274C64.9492 274 64.0001 274.949 64.0001 276.12C64.0001 277.291 64.9492 278.24 66.1201 278.24Z" fill="black"/>
<path d="M79.5745 278.24C80.7454 278.24 81.6946 277.291 81.6946 276.12C81.6946 274.949 80.7454 274 79.5745 274C78.4036 274 77.4544 274.949 77.4544 276.12C77.4544 277.291 78.4036 278.24 79.5745 278.24Z" fill="black"/>
<path d="M93.0288 278.24C94.1997 278.24 95.1489 277.291 95.1489 276.12C95.1489 274.949 94.1997 274 93.0288 274C91.8579 274 90.9088 274.949 90.9088 276.12C90.9088 277.291 91.8579 278.24 93.0288 278.24Z" fill="black"/>
<path d="M1050.16 81.5417C1051.33 81.5417 1052.28 80.5925 1052.28 79.4216C1052.28 78.2507 1051.33 77.3015 1050.16 77.3015C1048.99 77.3015 1048.04 78.2507 1048.04 79.4216C1048.04 80.5925 1048.99 81.5417 1050.16 81.5417Z" fill="black"/>
<path d="M1063.61 81.5417C1064.78 81.5417 1065.73 80.5925 1065.73 79.4216C1065.73 78.2507 1064.78 77.3015 1063.61 77.3015C1062.44 77.3015 1061.49 78.2507 1061.49 79.4216C1061.49 80.5925 1062.44 81.5417 1063.61 81.5417Z" fill="black"/>
<path d="M1077.07 81.5417C1078.24 81.5417 1079.19 80.5925 1079.19 79.4216C1079.19 78.2507 1078.24 77.3015 1077.07 77.3015C1075.9 77.3015 1074.95 78.2507 1074.95 79.4216C1074.95 80.5925 1075.9 81.5417 1077.07 81.5417Z" fill="black"/>
<path d="M1050.16 65.6818C1051.33 65.6818 1052.28 64.7326 1052.28 63.5617C1052.28 62.3908 1051.33 61.4417 1050.16 61.4417C1048.99 61.4417 1048.04 62.3908 1048.04 63.5617C1048.04 64.7326 1048.99 65.6818 1050.16 65.6818Z" fill="black"/>
<path d="M1063.61 65.6818C1064.78 65.6818 1065.73 64.7326 1065.73 63.5617C1065.73 62.3908 1064.78 61.4417 1063.61 61.4417C1062.44 61.4417 1061.49 62.3908 1061.49 63.5617C1061.49 64.7326 1062.44 65.6818 1063.61 65.6818Z" fill="black"/>
<path d="M1077.07 65.6818C1078.24 65.6818 1079.19 64.7326 1079.19 63.5617C1079.19 62.3908 1078.24 61.4417 1077.07 61.4417C1075.9 61.4417 1074.95 62.3908 1074.95 63.5617C1074.95 64.7326 1075.9 65.6818 1077.07 65.6818Z" fill="black"/>
<path d="M1050.16 51.8197C1051.33 51.8197 1052.28 50.8706 1052.28 49.6997C1052.28 48.5288 1051.33 47.5796 1050.16 47.5796C1048.99 47.5796 1048.04 48.5288 1048.04 49.6997C1048.04 50.8706 1048.99 51.8197 1050.16 51.8197Z" fill="black"/>
<path d="M1063.61 51.8197C1064.78 51.8197 1065.73 50.8706 1065.73 49.6997C1065.73 48.5288 1064.78 47.5796 1063.61 47.5796C1062.44 47.5796 1061.49 48.5288 1061.49 49.6997C1061.49 50.8706 1062.44 51.8197 1063.61 51.8197Z" fill="black"/>
<path d="M1077.07 51.8197C1078.24 51.8197 1079.19 50.8706 1079.19 49.6997C1079.19 48.5288 1078.24 47.5796 1077.07 47.5796C1075.9 47.5796 1074.95 48.5288 1074.95 49.6997C1074.95 50.8706 1075.9 51.8197 1077.07 51.8197Z" fill="black"/>
<path d="M1050.16 127.542C1051.33 127.542 1052.28 126.592 1052.28 125.422C1052.28 124.251 1051.33 123.302 1050.16 123.302C1048.99 123.302 1048.04 124.251 1048.04 125.422C1048.04 126.592 1048.99 127.542 1050.16 127.542Z" fill="black"/>
<path d="M1063.61 127.542C1064.78 127.542 1065.73 126.592 1065.73 125.422C1065.73 124.251 1064.78 123.302 1063.61 123.302C1062.44 123.302 1061.49 124.251 1061.49 125.422C1061.49 126.592 1062.44 127.542 1063.61 127.542Z" fill="black"/>
<path d="M1077.07 127.542C1078.24 127.542 1079.19 126.592 1079.19 125.422C1079.19 124.251 1078.24 123.302 1077.07 123.302C1075.9 123.302 1074.95 124.251 1074.95 125.422C1074.95 126.592 1075.9 127.542 1077.07 127.542Z" fill="black"/>
<path d="M1050.16 111.682C1051.33 111.682 1052.28 110.733 1052.28 109.562C1052.28 108.391 1051.33 107.442 1050.16 107.442C1048.99 107.442 1048.04 108.391 1048.04 109.562C1048.04 110.733 1048.99 111.682 1050.16 111.682Z" fill="black"/>
<path d="M1063.61 111.682C1064.78 111.682 1065.73 110.733 1065.73 109.562C1065.73 108.391 1064.78 107.442 1063.61 107.442C1062.44 107.442 1061.49 108.391 1061.49 109.562C1061.49 110.733 1062.44 111.682 1063.61 111.682Z" fill="black"/>
<path d="M1077.07 111.682C1078.24 111.682 1079.19 110.733 1079.19 109.562C1079.19 108.391 1078.24 107.442 1077.07 107.442C1075.9 107.442 1074.95 108.391 1074.95 109.562C1074.95 110.733 1075.9 111.682 1077.07 111.682Z" fill="black"/>
<path d="M1050.16 97.8197C1051.33 97.8197 1052.28 96.8706 1052.28 95.6997C1052.28 94.5288 1051.33 93.5796 1050.16 93.5796C1048.99 93.5796 1048.04 94.5288 1048.04 95.6997C1048.04 96.8706 1048.99 97.8197 1050.16 97.8197Z" fill="black"/>
<path d="M1063.61 97.8197C1064.78 97.8197 1065.73 96.8706 1065.73 95.6997C1065.73 94.5288 1064.78 93.5796 1063.61 93.5796C1062.44 93.5796 1061.49 94.5288 1061.49 95.6997C1061.49 96.8706 1062.44 97.8197 1063.61 97.8197Z" fill="black"/>
<path d="M1077.07 97.8197C1078.24 97.8197 1079.19 96.8706 1079.19 95.6997C1079.19 94.5288 1078.24 93.5796 1077.07 93.5796C1075.9 93.5796 1074.95 94.5288 1074.95 95.6997C1074.95 96.8706 1075.9 97.8197 1077.07 97.8197Z" fill="black"/>
<path d="M1050.16 35.96C1051.33 35.96 1052.28 35.0108 1052.28 33.8399C1052.28 32.669 1051.33 31.7198 1050.16 31.7198C1048.99 31.7198 1048.04 32.669 1048.04 33.8399C1048.04 35.0108 1048.99 35.96 1050.16 35.96Z" fill="black"/>
<path d="M1063.61 35.96C1064.78 35.96 1065.73 35.0108 1065.73 33.8399C1065.73 32.669 1064.78 31.7198 1063.61 31.7198C1062.44 31.7198 1061.49 32.669 1061.49 33.8399C1061.49 35.0108 1062.44 35.96 1063.61 35.96Z" fill="black"/>
<path d="M1077.07 35.96C1078.24 35.96 1079.19 35.0108 1079.19 33.8399C1079.19 32.669 1078.24 31.7198 1077.07 31.7198C1075.9 31.7198 1074.95 32.669 1074.95 33.8399C1074.95 35.0108 1075.9 35.96 1077.07 35.96Z" fill="black"/>
<path d="M1050.16 20.1C1051.33 20.1 1052.28 19.1508 1052.28 17.9799C1052.28 16.8091 1051.33 15.8599 1050.16 15.8599C1048.99 15.8599 1048.04 16.8091 1048.04 17.9799C1048.04 19.1508 1048.99 20.1 1050.16 20.1Z" fill="black"/>
<path d="M1063.61 20.1C1064.78 20.1 1065.73 19.1508 1065.73 17.9799C1065.73 16.8091 1064.78 15.8599 1063.61 15.8599C1062.44 15.8599 1061.49 16.8091 1061.49 17.9799C1061.49 19.1508 1062.44 20.1 1063.61 20.1Z" fill="black"/>
<path d="M1077.07 20.1C1078.24 20.1 1079.19 19.1508 1079.19 17.9799C1079.19 16.8091 1078.24 15.8599 1077.07 15.8599C1075.9 15.8599 1074.95 16.8091 1074.95 17.9799C1074.95 19.1508 1075.9 20.1 1077.07 20.1Z" fill="black"/>
<path d="M1050.16 4.24028C1051.33 4.24028 1052.28 3.29109 1052.28 2.1202C1052.28 0.949313 1051.33 0.00012207 1050.16 0.00012207C1048.99 0.00012207 1048.04 0.949313 1048.04 2.1202C1048.04 3.29109 1048.99 4.24028 1050.16 4.24028Z" fill="black"/>
<path d="M1063.61 4.24022C1064.78 4.24022 1065.73 3.29103 1065.73 2.12014C1065.73 0.949252 1064.78 6.10352e-05 1063.61 6.10352e-05C1062.44 6.10352e-05 1061.49 0.949252 1061.49 2.12014C1061.49 3.29103 1062.44 4.24022 1063.61 4.24022Z" fill="black"/>
<path d="M1077.07 4.24022C1078.24 4.24022 1079.19 3.29103 1079.19 2.12014C1079.19 0.949252 1078.24 6.10352e-05 1077.07 6.10352e-05C1075.9 6.10352e-05 1074.95 0.949252 1074.95 2.12014C1074.95 3.29103 1075.9 4.24022 1077.07 4.24022Z" fill="black"/>
</svg>
