<svg width="79" height="79" viewBox="0 0 79 79" fill="none" xmlns="http://www.w3.org/2000/svg">
<g clip-path="url(#clip0_1_280)">
<path d="M77.7256 0H6.37095C5.6679 0 5.09676 0.571145 5.09676 1.27419V5.09676H1.27419C0.571146 5.09676 0 5.6679 0 6.37095V57.3385C0 58.0434 0.571146 58.6127 1.27419 58.6127H26.1476C27.3609 60.0791 28.8721 61.2861 30.5806 62.1628V77.7255C30.5806 78.2401 30.8916 78.7067 31.367 78.9027C31.8423 79.1005 32.3898 78.991 32.7556 78.6264L36.9515 74.4306L41.1474 78.6264C41.3906 78.8697 41.7173 78.9997 42.0483 78.9997C42.2125 78.9997 42.3786 78.9692 42.5367 78.9027C43.0114 78.7067 43.3224 78.2401 43.3224 77.7255V62.1628C45.0303 61.2861 46.5409 60.0804 47.7554 58.6127H72.6288C73.3325 58.6127 73.903 58.0434 73.903 57.3385V53.5159H77.7256C78.4292 53.5159 78.9998 52.9467 78.9998 52.2418V1.27419C78.9998 0.571145 78.4292 0 77.7256 0ZM40.7741 74.6496L37.8524 71.7279C37.354 71.2295 36.549 71.2295 36.0506 71.7279L33.1289 74.6496V63.1669C34.3459 63.5122 35.625 63.7095 36.9515 63.7095C38.278 63.7095 39.5571 63.5122 40.7741 63.1669V74.6496ZM36.9515 61.1611C30.6291 61.1611 25.4838 56.017 25.4838 49.6934C25.4838 43.3697 30.6291 38.2257 36.9515 38.2257C43.2739 38.2257 48.4192 43.3697 48.4192 49.6934C48.4192 56.017 43.2739 61.1611 36.9515 61.1611ZM23.0007 50.9676H15.2001C14.6395 47.066 11.5455 43.9738 7.64514 43.4126V20.2968C11.5455 19.7356 14.6395 16.6422 15.2001 12.7419H58.7048C59.2654 16.6422 62.3588 19.7356 66.2591 20.2968V43.4139C62.3588 43.9738 59.2654 47.0672 58.7048 50.9688H50.9041C50.9408 50.547 50.9676 50.1239 50.9676 49.6934C50.9676 41.9655 44.6794 35.6773 36.9515 35.6773C29.2236 35.6773 22.9354 41.9655 22.9354 49.6934C22.9354 50.1239 22.9622 50.547 23.0007 50.9676ZM71.3546 56.0643H49.4209C49.8353 55.2568 50.1725 54.4056 50.4251 53.5159H59.8869C60.5906 53.5159 61.1611 52.9467 61.1611 52.2418C61.1611 48.729 64.0193 45.8708 67.5321 45.8708C68.2357 45.8708 68.8062 45.3015 68.8062 44.5966V19.1128C68.8062 18.4098 68.2357 17.8386 67.5321 17.8386C64.0193 17.8386 61.1611 14.9804 61.1611 11.4677C61.1611 10.7647 60.5906 10.1935 59.8869 10.1935H14.0161C13.313 10.1935 12.7419 10.7647 12.7419 11.4677C12.7419 14.9804 9.8843 17.8386 6.37095 17.8386C5.6679 17.8386 5.09676 18.4098 5.09676 19.1128V44.5966C5.09676 45.3015 5.6679 45.8708 6.37095 45.8708C9.8843 45.8708 12.7419 48.729 12.7419 52.2418C12.7419 52.9467 13.313 53.5159 14.0161 53.5159H23.4786C23.7305 54.4056 24.0684 55.2568 24.4821 56.0643H2.54838V7.64514H71.3546V56.0643ZM76.4514 50.9676H73.903V6.37095C73.903 5.6679 73.3325 5.09676 72.6288 5.09676H7.64514V2.54838H76.4514V50.9676Z" fill="#4C858B"/>
<path d="M36.9517 40.7742C32.0335 40.7742 28.0323 44.7766 28.0323 49.6936H30.5807C30.5807 46.1809 33.439 43.3226 36.9517 43.3226V40.7742Z" fill="#4C858B"/>
<path d="M43.3227 49.6935C43.3227 53.2062 40.4651 56.0645 36.9517 56.0645V58.6129C41.8699 58.6129 45.8711 54.6105 45.8711 49.6935H43.3227Z" fill="#4C858B"/>
<path d="M56.0646 21.6613V16.5645C56.0646 15.8615 55.494 15.2903 54.7904 15.2903H19.1129C18.4099 15.2903 17.8387 15.8615 17.8387 16.5645V21.6613C17.8387 22.3644 18.4099 22.9355 19.1129 22.9355H54.7904C55.494 22.9355 56.0646 22.3644 56.0646 21.6613ZM53.5162 20.3871H20.3871V17.8387H53.5162V20.3871Z" fill="#4C858B"/>
<path d="M10.1936 25.4838H20.3871V28.0322H10.1936V25.4838Z" fill="#4C858B"/>
<path d="M10.1936 30.5806H20.3871V33.129H10.1936V30.5806Z" fill="#4C858B"/>
<path d="M22.9355 30.5806H63.7097V33.129H22.9355V30.5806Z" fill="#4C858B"/>
<path d="M22.9355 25.4838H63.7097V28.0322H22.9355V25.4838Z" fill="#4C858B"/>
</g>
<defs>
<clipPath id="clip0_1_280">
<rect width="79" height="79" fill="white"/>
</clipPath>
</defs>
</svg>
