<svg width="15" height="16" viewBox="0 0 15 16" fill="none" xmlns="http://www.w3.org/2000/svg">
<g clip-path="url(#clip0_4537_43)">
<path d="M10.9396 0H4.06036C1.82144 0 0 1.94287 0 4.33105V11.669C0 14.0571 1.82144 16 4.06036 16H10.9397C13.1785 16 15 14.0571 15 11.669V4.33105C15 1.94287 13.1785 0 10.9396 0V0ZM7.49999 12.3749C5.23841 12.3749 3.39855 10.4123 3.39855 7.99998C3.39855 5.58764 5.23841 3.62512 7.49999 3.62512C9.76156 3.62512 11.6014 5.58764 11.6014 7.99998C11.6014 10.4123 9.76156 12.3749 7.49999 12.3749ZM11.6995 4.65685C11.0312 4.65685 10.4876 4.07702 10.4876 3.36413C10.4876 2.65124 11.0312 2.07129 11.6995 2.07129C12.3678 2.07129 12.9115 2.65124 12.9115 3.36413C12.9115 4.07702 12.3678 4.65685 11.6995 4.65685Z" fill="#4C858B"/>
<path d="M7.49997 4.56299C5.72339 4.56299 4.27789 6.10473 4.27789 7.99987C4.27789 9.89489 5.72339 11.4368 7.49997 11.4368C9.27666 11.4368 10.722 9.89489 10.722 7.99987C10.722 6.10473 9.27666 4.56299 7.49997 4.56299Z" fill="#4C858B"/>
<path d="M11.6995 3.00928C11.5162 3.00928 11.3669 3.16846 11.3669 3.36401C11.3669 3.55957 11.5162 3.71875 11.6995 3.71875C11.883 3.71875 12.0322 3.55969 12.0322 3.36401C12.0322 3.16833 11.883 3.00928 11.6995 3.00928Z" fill="#4C858B"/>
</g>
<defs>
<clipPath id="clip0_4537_43">
<rect width="15" height="16" fill="white"/>
</clipPath>
</defs>
</svg>
