<svg width="56" height="56" viewBox="0 0 56 56" fill="none" xmlns="http://www.w3.org/2000/svg">
<circle cx="28" cy="28" r="27.5" stroke="#E5E5E5"/>
<path d="M27.5 37.7204C27.1725 37.7204 26.8569 37.6018 26.6108 37.3863C25.6817 36.5739 24.7859 35.8104 23.9956 35.1369L23.9915 35.1334C21.6744 33.1588 19.6734 31.4535 18.2812 29.7736C16.7249 27.8957 16 26.1151 16 24.17C16 22.2801 16.648 20.5366 17.8246 19.2603C19.0152 17.969 20.6489 17.2578 22.4252 17.2578C23.7529 17.2578 24.9687 17.6776 26.039 18.5053C26.5791 18.9231 27.0687 19.4344 27.5 20.0309C27.9315 19.4344 28.4209 18.9231 28.9612 18.5053C30.0314 17.6776 31.2473 17.2578 32.5749 17.2578C34.3511 17.2578 35.9849 17.969 37.1755 19.2603C38.3521 20.5366 39 22.2801 39 24.17C39 26.1151 38.2752 27.8957 36.7189 29.7735C35.3267 31.4535 33.3259 33.1586 31.0091 35.133C30.2174 35.8076 29.3202 36.5723 28.3889 37.3867C28.1431 37.6018 27.8272 37.7204 27.5 37.7204ZM22.4252 18.6051C21.0297 18.6051 19.7476 19.1621 18.815 20.1735C17.8685 21.2002 17.3471 22.6195 17.3471 24.17C17.3471 25.806 17.9552 27.2691 19.3184 28.914C20.6361 30.504 22.596 32.1742 24.8652 34.1081L24.8694 34.1116C25.6627 34.7877 26.5621 35.5542 27.498 36.3726C28.4397 35.5526 29.3404 34.7849 30.1353 34.1077C32.4044 32.1738 34.3641 30.504 35.6817 28.914C37.0448 27.2691 37.6528 25.806 37.6528 24.17C37.6528 22.6195 37.1315 21.2002 36.185 20.1735C35.2525 19.1621 33.9703 18.6051 32.5749 18.6051C31.5526 18.6051 30.614 18.9301 29.7852 19.5709C29.0466 20.1423 28.5321 20.8645 28.2305 21.3699C28.0754 21.6298 27.8023 21.7849 27.5 21.7849C27.1976 21.7849 26.9246 21.6298 26.7695 21.3699C26.468 20.8645 25.9535 20.1423 25.2148 19.5709C24.386 18.9301 23.4474 18.6051 22.4252 18.6051Z" fill="#E33E54"/>
</svg>
