<svg width="77" height="77" viewBox="0 0 77 77" fill="none" xmlns="http://www.w3.org/2000/svg">
<g clip-path="url(#clip0_1_236)">
<path d="M8.19933 6.82037C7.36902 6.82037 6.69557 7.49367 6.69557 8.32413C6.69557 9.15459 7.36887 9.82789 8.19933 9.82789H8.21437C9.04467 9.82789 9.7106 9.15459 9.7106 8.32413C9.7106 7.49367 9.02978 6.82037 8.19933 6.82037Z" fill="#4C858B"/>
<path d="M15.4101 6.82037C14.5797 6.82037 13.9063 7.49367 13.9063 8.32413C13.9063 9.15459 14.5796 9.82789 15.4101 9.82789H15.4249C16.2552 9.82789 16.9213 9.15459 16.9213 8.32413C16.9213 7.49367 16.2405 6.82037 15.4101 6.82037Z" fill="#4C858B"/>
<path d="M22.62 6.82037C21.7897 6.82037 21.1162 7.49367 21.1162 8.32413C21.1162 9.15459 21.7895 9.82789 22.62 9.82789H22.6349C23.4652 9.82789 24.1311 9.15459 24.1311 8.32413C24.1311 7.49367 23.4504 6.82037 22.62 6.82037Z" fill="#4C858B"/>
<path d="M59.5048 6.82037H41.2562C40.4259 6.82037 39.7525 7.49367 39.7525 8.32413C39.7525 9.15459 40.4258 9.82789 41.2562 9.82789H59.5048C60.3351 9.82789 61.0085 9.15459 61.0085 8.32413C61.0085 7.49367 60.3351 6.82037 59.5048 6.82037Z" fill="#4C858B"/>
<path d="M35.1777 59.6919C34.8978 59.4121 34.5099 59.2512 34.1146 59.2512C33.7192 59.2512 33.3312 59.4121 33.0516 59.6919C32.7719 59.9716 32.6108 60.3596 32.6108 60.755C32.6108 61.1504 32.7717 61.5384 33.0516 61.8179C33.3312 62.0977 33.719 62.2587 34.1146 62.2587C34.5101 62.2587 34.898 62.0978 35.1777 61.8179C35.4574 61.5384 35.6183 61.1505 35.6183 60.755C35.6183 60.3594 35.4574 59.9716 35.1777 59.6919Z" fill="#4C858B"/>
<path d="M68.8798 19.2912V7.52314C68.8798 3.37733 65.507 0.0045166 61.3612 0.0045166H7.51863C3.37281 0.0045166 0 3.37748 0 7.52329V55.0367C0 59.0191 3.23987 62.259 7.22221 62.259H12.8658V62.5031C12.8658 63.0176 12.4996 63.4638 11.9952 63.5643L6.32814 64.6934C3.17881 65.3211 0.828953 67.8875 0.480949 71.0799L0.0175957 75.329C-0.0287246 75.7537 0.10798 76.178 0.393121 76.496C0.678262 76.8141 1.08537 76.9958 1.51248 76.9958H34.1146C34.5419 76.9958 34.949 76.814 35.2341 76.4959C35.5193 76.1778 35.6558 75.7534 35.6093 75.3287L35.1448 71.0782C34.796 67.8866 32.4463 65.321 29.2979 64.6935L23.6298 63.5643C23.1253 63.4638 22.7592 63.0174 22.7592 62.5031V61.0911C22.7592 61.0834 22.7582 61.076 22.758 61.0684L25.3067 59.6114C25.3348 59.5954 25.3622 59.5784 25.3891 59.5607C26.7557 58.6582 27.6531 57.0511 27.7898 55.2616C27.7928 55.2234 27.7941 55.1852 27.7941 55.147V48.9801C28.6927 48.3948 29.3487 47.3306 29.3487 45.4679L29.3511 42.0889C29.3511 42.033 29.3481 41.9778 29.3421 41.9233C29.1881 38.9476 26.7652 36.6361 23.7682 36.6361H10.9895C10.4285 36.6361 9.90788 36.3389 9.56981 36.0897C8.93651 35.6229 8.10831 35.5528 7.40764 35.9068C6.70968 36.2595 6.2761 36.9647 6.2761 37.7474V42.6403C6.2761 44.3022 6.86037 45.8297 7.8331 47.0306V55.147C7.8331 55.1852 7.8346 55.2234 7.83746 55.2616C7.95942 56.858 8.69754 58.3119 9.83855 59.2514H7.22221C4.89822 59.2516 3.00736 57.3609 3.00736 55.0367V23.4733H19.8006C20.6309 23.4733 21.3043 22.8 21.3043 21.9695C21.3043 21.1391 20.631 20.4658 19.8006 20.4658H3.00751V16.2553H65.8724V19.2497H41.4619C36.5147 19.2497 32.4896 23.2746 32.4896 28.2219V40.8082C32.4896 45.7554 36.5147 49.7804 41.4619 49.7804H43.3417V54.177C43.3417 54.7854 43.7082 55.3335 44.2699 55.5663C44.4559 55.6433 44.6514 55.6808 44.8451 55.6808C45.2366 55.6808 45.621 55.528 45.9087 55.2403L51.3686 49.7802H65.8726V55.0365C65.8726 57.3606 63.9817 59.2515 61.6576 59.2515H40.2339C39.4035 59.2515 38.7301 59.9248 38.7301 60.7553C38.7301 61.5857 39.4034 62.259 40.2339 62.259H61.6574C65.6399 62.259 68.8798 59.019 68.8798 55.0367V49.739C73.4288 49.3081 77 45.4682 77 40.8083V28.222C77 23.5622 73.4288 19.7221 68.8798 19.2912ZM23.7319 66.6513L28.7105 67.6432C30.5658 68.0127 31.95 69.5244 32.1556 71.4047L32.4379 73.9881H3.18933L3.47102 71.4058C3.676 69.5247 5.06049 68.0127 6.91601 67.643L11.895 66.651C13.5278 68.1056 15.6092 68.9019 17.8136 68.9019C20.018 68.9019 22.0993 68.1054 23.7319 66.6513ZM14.91 65.1318C15.4582 64.48 15.8023 63.6593 15.8612 62.7729C16.4831 63.0777 17.1481 63.2326 17.8136 63.2326C18.4783 63.2328 19.1425 63.0782 19.764 62.7739C19.8231 63.6604 20.1677 64.4809 20.7159 65.1327C19.8401 65.6288 18.8476 65.8943 17.8136 65.8943C16.7794 65.8943 15.7864 65.6284 14.91 65.1318ZM24.7869 55.0845C24.7111 55.904 24.324 56.641 23.7661 57.0283L18.7142 59.9162C18.686 59.9322 18.6587 59.9492 18.6317 59.9669C18.1117 60.3102 17.5154 60.3101 16.9956 59.9669C16.9693 59.9496 16.9424 59.9329 16.915 59.9173L11.8772 57.0286C11.3094 56.6356 10.9163 55.8982 10.8405 55.0843V49.1943C11.5956 49.4745 12.4119 49.628 13.2633 49.628H24.7869V55.0845ZM9.28361 42.6406V39.3291C9.84562 39.5368 10.4201 39.6437 10.9898 39.6437H23.7685C25.1715 39.6437 26.3018 40.742 26.3415 42.1443C26.342 42.161 26.3429 42.1778 26.3439 42.1945L26.3415 45.467C26.3415 45.4673 26.3415 45.4678 26.3415 45.4681C26.3415 46.2293 26.186 46.4217 26.1683 46.4412C26.1075 46.5077 25.8442 46.6203 25.2429 46.6203H13.2634C11.0688 46.6203 9.28361 44.8352 9.28361 42.6406ZM3.00751 13.2479V7.52329C3.00751 5.03583 5.03117 3.01218 7.51863 3.01218H61.3612C63.8486 3.01218 65.8723 5.03583 65.8723 7.52329V13.2481H3.00751V13.2479ZM73.9925 40.8083C73.9925 44.0972 71.3166 46.773 68.0277 46.773H50.7454C50.3466 46.773 49.9643 46.9315 49.6821 47.2135L46.349 50.5467V48.2767C46.349 47.4464 45.6757 46.773 44.8453 46.773H41.4619C38.1731 46.773 35.4972 44.0972 35.4972 40.8083V28.222C35.4972 24.9331 38.1731 22.2574 41.4619 22.2574H68.0277C71.3166 22.2574 73.9925 24.9331 73.9925 28.222V40.8083Z" fill="#4C858B"/>
<path d="M42.7148 29.9465C40.2273 29.9465 38.2035 31.9702 38.2035 34.4577C38.2035 36.9451 40.2272 38.9688 42.7148 38.9688C45.2023 38.9688 47.2259 36.9451 47.2259 34.4577C47.2259 31.9702 45.2023 29.9465 42.7148 29.9465ZM42.7148 35.9614C41.8857 35.9614 41.211 35.2869 41.211 34.4577C41.211 33.6285 41.8855 32.9539 42.7148 32.9539C43.5441 32.9539 44.2186 33.6284 44.2186 34.4577C44.2186 35.2869 43.5437 35.9614 42.7148 35.9614Z" fill="#4C858B"/>
<path d="M54.7442 29.9465C52.2568 29.9465 50.2331 31.9702 50.2331 34.4577C50.2331 36.9451 52.2568 38.9688 54.7442 38.9688C57.2317 38.9688 59.2553 36.9451 59.2553 34.4577C59.2553 31.9702 57.2317 29.9465 54.7442 29.9465ZM54.7442 35.9614C53.9151 35.9614 53.2405 35.2869 53.2405 34.4577C53.2405 33.6285 53.915 32.9539 54.7442 32.9539C55.5735 32.9539 56.248 33.6284 56.248 34.4577C56.248 35.2869 55.5733 35.9614 54.7442 35.9614Z" fill="#4C858B"/>
<path d="M66.7745 29.9465C64.2871 29.9465 62.2634 31.9702 62.2634 34.4577C62.2634 36.9451 64.2871 38.9688 66.7745 38.9688C69.262 38.9688 71.2858 36.9451 71.2858 34.4577C71.2858 31.9702 69.262 29.9465 66.7745 29.9465ZM66.7745 35.9614C65.9454 35.9614 65.2708 35.2869 65.2708 34.4577C65.2708 33.6285 65.9453 32.9539 66.7745 32.9539C67.6037 32.9539 68.2783 33.6284 68.2783 34.4577C68.2783 35.2869 67.6035 35.9614 66.7745 35.9614Z" fill="#4C858B"/>
<path d="M26.5024 20.9062C26.2228 20.6265 25.8349 20.4655 25.4394 20.4655C25.0439 20.4655 24.6562 20.6264 24.3763 20.9062C24.0966 21.1858 23.9356 21.5723 23.9356 21.9692C23.9356 22.3649 24.0964 22.7527 24.3763 23.0323C24.656 23.312 25.0439 23.473 25.4394 23.473C25.8364 23.473 26.2228 23.3122 26.5024 23.0323C26.7836 22.7527 26.9432 22.3649 26.9432 21.9692C26.9432 21.5738 26.7836 21.1858 26.5024 20.9062Z" fill="#4C858B"/>
</g>
<defs>
<clipPath id="clip0_1_236">
<rect width="77" height="77" fill="white"/>
</clipPath>
</defs>
</svg>
