<svg width="56" height="56" viewBox="0 0 56 56" fill="none" xmlns="http://www.w3.org/2000/svg">
<circle cx="28" cy="28" r="27.5" stroke="#E5E5E5"/>
<g clip-path="url(#clip0_4537_21)">
<path d="M38.7312 37.4351L32.475 31.1789C33.6868 29.682 34.4165 27.7799 34.4165 25.7083C34.4165 20.9068 30.5097 17 25.7082 17C20.9068 17 17 20.9068 17 25.7082C17 30.5097 20.9068 34.4165 25.7083 34.4165C27.7799 34.4165 29.682 33.6868 31.1789 32.475L37.4351 38.7312C37.6138 38.9099 37.8484 38.9998 38.0831 38.9998C38.3178 38.9998 38.5525 38.9099 38.7312 38.7312C39.0896 38.3728 39.0896 37.7934 38.7312 37.4351ZM25.7083 32.5832C21.917 32.5832 18.8333 29.4995 18.8333 25.7082C18.8333 21.9169 21.917 18.8333 25.7083 18.8333C29.4996 18.8333 32.5832 21.9169 32.5832 25.7082C32.5832 29.4995 29.4995 32.5832 25.7083 32.5832Z" fill="#4C858B"/>
</g>
<defs>
<clipPath id="clip0_4537_21">
<rect width="22" height="22" fill="white" transform="translate(17 17)"/>
</clipPath>
</defs>
</svg>
