<svg width="15" height="15" viewBox="0 0 15 15" fill="none" xmlns="http://www.w3.org/2000/svg">
<g clip-path="url(#clip0_4728_172)">
<path d="M7.5 0C3.3646 0 0 3.36442 0 7.5C0 11.6356 3.3646 15 7.5 15C11.6356 15 15 11.6356 15 7.5C15 3.36442 11.6354 0 7.5 0ZM7.5 13.9051C3.96826 13.9051 1.09488 11.0317 1.09488 7.5C1.09488 3.96826 3.96826 1.09488 7.5 1.09488C11.0317 1.09488 13.9051 3.96823 13.9051 7.49982C13.9051 11.0317 11.0317 13.9051 7.5 13.9051Z" fill="#4C858B"/>
<path d="M10.0548 7.50009H7.6825V4.21541C7.6825 3.91304 7.43743 3.66797 7.13506 3.66797C6.83268 3.66797 6.58762 3.91304 6.58762 4.21541V8.04753C6.58762 8.3499 6.83268 8.59497 7.13506 8.59497H10.0548C10.3571 8.59497 10.6022 8.3499 10.6022 8.04753C10.6022 7.74516 10.3571 7.50009 10.0548 7.50009Z" fill="#4C858B"/>
</g>
<defs>
<clipPath id="clip0_4728_172">
<rect width="15" height="15" fill="white"/>
</clipPath>
</defs>
</svg>
