<svg width="18" height="19" viewBox="0 0 18 19" fill="none" xmlns="http://www.w3.org/2000/svg">
<g clip-path="url(#clip0_1_376)">
<path d="M13.1275 0H4.87243C2.18573 0 0 2.30716 0 5.14312V13.857C0 16.6928 2.18573 19 4.87243 19H13.1277C15.8142 19 18 16.6928 18 13.857V5.14312C18 2.30716 15.8142 0 13.1275 0V0ZM8.99998 14.6951C6.28609 14.6951 4.07825 12.3646 4.07825 9.49998C4.07825 6.63532 6.28609 4.30482 8.99998 4.30482C11.7139 4.30482 13.9217 6.63532 13.9217 9.49998C13.9217 12.3646 11.7139 14.6951 8.99998 14.6951ZM14.0394 5.53001C13.2374 5.53001 12.5851 4.84146 12.5851 3.9949C12.5851 3.14835 13.2374 2.45965 14.0394 2.45965C14.8414 2.45965 15.4939 3.14835 15.4939 3.9949C15.4939 4.84146 14.8414 5.53001 14.0394 5.53001Z" fill="#EA6628"/>
<path d="M8.99999 5.41864C6.8681 5.41864 5.1335 7.24946 5.1335 9.49994C5.1335 11.7503 6.8681 13.5812 8.99999 13.5812C11.132 13.5812 12.8665 11.7503 12.8665 9.49994C12.8665 7.24946 11.132 5.41864 8.99999 5.41864Z" fill="#EA6628"/>
<path d="M14.0394 3.57363C13.8194 3.57363 13.6403 3.76266 13.6403 3.99488C13.6403 4.2271 13.8194 4.41613 14.0394 4.41613C14.2596 4.41613 14.4386 4.22725 14.4386 3.99488C14.4386 3.76251 14.2596 3.57363 14.0394 3.57363Z" fill="#EA6628"/>
</g>
<defs>
<clipPath id="clip0_1_376">
<rect width="18" height="19" fill="white"/>
</clipPath>
</defs>
</svg>
