<svg width="23" height="23" viewBox="0 0 23 23" fill="none" xmlns="http://www.w3.org/2000/svg">
<g clip-path="url(#clip0_1_382)">
<path d="M19.0852 12.4852C18.7134 12.0156 18.8197 11.8067 19.0852 11.3869C19.09 11.3821 22.1595 7.14055 22.4758 5.70209L22.4777 5.70113C22.6349 5.17692 22.4777 4.79167 21.7177 4.79167H19.2031C18.5629 4.79167 18.2677 5.1223 18.1096 5.49221C18.1096 5.49221 16.8293 8.55696 15.018 10.5436C14.4335 11.1176 14.1632 11.3016 13.8441 11.3016C13.6869 11.3016 13.4425 11.1176 13.4425 10.5934V5.70113C13.4425 5.07246 13.2633 4.79167 12.7334 4.79167H8.77928C8.37774 4.79167 8.13912 5.08492 8.13912 5.35805C8.13912 5.95413 9.04474 6.09117 9.13866 7.76826V11.407C9.13866 12.2044 8.99395 12.351 8.67291 12.351C7.81808 12.351 5.74328 9.2738 4.51374 5.75192C4.26553 5.06863 4.02308 4.79263 3.37812 4.79263H0.862492C0.144701 4.79263 -7.62939e-06 5.12325 -7.62939e-06 5.49317C-7.62939e-06 6.14676 0.854825 9.39646 3.97516 13.6898C6.05474 16.6204 8.98341 18.2083 11.6476 18.2083C13.249 18.2083 13.4445 17.8557 13.4445 17.249C13.4445 14.4488 13.2997 14.1843 14.1019 14.1843C14.4737 14.1843 15.1139 14.3683 16.6089 15.7818C18.3176 17.458 18.5984 18.2083 19.5548 18.2083H22.0695C22.7863 18.2083 23.1495 17.8557 22.9406 17.1599C22.4624 15.6965 19.2309 12.6864 19.0852 12.4852Z" fill="#EA6628"/>
</g>
<defs>
<clipPath id="clip0_1_382">
<rect width="23" height="23" fill="white"/>
</clipPath>
</defs>
</svg>
