<svg width="18" height="19" viewBox="0 0 18 19" fill="none" xmlns="http://www.w3.org/2000/svg">
<g clip-path="url(#clip0_1_372)">
<path d="M9.00225 0H8.99775C4.03538 0 0 4.26075 0 9.5C0 11.5781 0.6345 13.5043 1.71337 15.0682L0.59175 18.5974L4.05113 17.4301C5.47425 18.4253 7.17188 19 9.00225 19C13.9646 19 18 14.7381 18 9.5C18 4.26194 13.9646 0 9.00225 0ZM14.2391 13.4152C14.022 14.0624 13.1602 14.5991 12.4729 14.7559C12.0026 14.8616 11.3884 14.9459 9.32063 14.041C6.67575 12.8844 4.9725 10.0474 4.83975 9.86337C4.71263 9.67931 3.771 8.36119 3.771 6.99794C3.771 5.63469 4.42688 4.97088 4.69125 4.68587C4.90838 4.45194 5.26725 4.34506 5.6115 4.34506C5.72288 4.34506 5.823 4.351 5.913 4.35575C6.17737 4.36762 6.31012 4.38425 6.4845 4.82481C6.70162 5.377 7.23037 6.74025 7.29338 6.88038C7.3575 7.0205 7.42163 7.2105 7.33162 7.39456C7.24725 7.58456 7.173 7.66887 7.04025 7.83037C6.9075 7.99187 6.7815 8.11537 6.64875 8.28875C6.52725 8.43956 6.39 8.60106 6.543 8.88013C6.696 9.15325 7.22475 10.0641 8.00325 10.7956C9.00787 11.7396 9.82237 12.0413 10.1137 12.1695C10.3309 12.2645 10.5896 12.2419 10.7483 12.0638C10.9496 11.8346 11.1982 11.4546 11.4514 11.0806C11.6314 10.8122 11.8586 10.7789 12.0971 10.8739C12.3401 10.963 13.626 11.6339 13.8904 11.7729C14.1547 11.913 14.3291 11.9795 14.3932 12.0971C14.4562 12.2146 14.4562 12.7668 14.2391 13.4152Z" fill="#EA6628"/>
</g>
<defs>
<clipPath id="clip0_1_372">
<rect width="18" height="19" fill="white"/>
</clipPath>
</defs>
</svg>
