<svg width="56" height="56" viewBox="0 0 56 56" fill="none" xmlns="http://www.w3.org/2000/svg">
<circle cx="28" cy="28" r="27.5" stroke="#4C858B"/>
<g clip-path="url(#clip0_4537_27)">
<path d="M38.0833 17.9167H17.9167C17.4104 17.9167 17 18.3272 17 18.8334C17 19.3396 17.4104 19.7501 17.9167 19.7501H38.0833C38.5896 19.7501 39 19.3397 39 18.8334C39 18.3271 38.5896 17.9167 38.0833 17.9167Z" fill="#4C858B"/>
<path d="M38.0833 27.0833H17.9167C17.4104 27.0833 17 27.4937 17 27.9999C17 28.5062 17.4104 28.9166 17.9167 28.9166H38.0833C38.5896 28.9166 39 28.5062 39 27.9999C39 27.4937 38.5896 27.0833 38.0833 27.0833Z" fill="#4C858B"/>
<path d="M38.0833 36.25H17.9167C17.4104 36.25 17 36.6604 17 37.1667C17 37.673 17.4104 38.0834 17.9167 38.0834H38.0833C38.5896 38.0834 39 37.673 39 37.1667C39 36.6604 38.5896 36.25 38.0833 36.25Z" fill="#4C858B"/>
</g>
<defs>
<clipPath id="clip0_4537_27">
<rect width="22" height="22" fill="white" transform="translate(17 17)"/>
</clipPath>
</defs>
</svg>
