<svg width="17" height="17" viewBox="0 0 17 17" fill="none" xmlns="http://www.w3.org/2000/svg">
<path d="M8.35585 0.522949C5.30122 0.522949 2.81604 3.00812 2.81604 6.06275C2.81604 9.90209 8.3613 16.4604 8.3613 16.4604C8.3613 16.4604 13.8957 9.71327 13.8957 6.06275C13.8957 3.00812 11.4106 0.522949 8.35585 0.522949ZM10.0273 7.6848C9.56644 8.14559 8.9612 8.37604 8.35585 8.37604C7.75061 8.37604 7.14517 8.14559 6.68447 7.6848C5.76279 6.76322 5.76279 5.26364 6.68447 4.34196C7.13077 3.89547 7.72444 3.64955 8.35585 3.64955C8.98727 3.64955 9.58084 3.89556 10.0273 4.34196C10.949 5.26364 10.949 6.76322 10.0273 7.6848Z" fill="#4C858B"/>
</svg>
